<svg xmlns="http://www.w3.org/2000/svg" width="320" height="320" viewBox="0 0 320 320">
  <defs>
    <linearGradient id="tile" x1="0%" y1="0%" x2="100%" y2="100%">
      <stop offset="0%" stop-color="#74233c" />
      <stop offset="100%" stop-color="#4f1628" />
    </linearGradient>
  </defs>
  <rect width="320" height="320" fill="url(#tile)" />
  <g fill="#2b0815" fill-opacity="0.2">
    <path d="M160 16c24 32 54 50 92 58-28 8-50 26-70 54 0-40-6-70-22-112Z" />
    <path d="M160 16c-24 32-54 50-92 58 28 8 50 26 70 54 0-40 6-70 22-112Z" />
    <path d="M52 96c30 12 48 34 54 68-12-18-28-28-50-34 8-8 6-20-4-34Z" />
    <path d="M268 96c-30 12-48 34-54 68 12-18 28-28 50-34-8-8-6-20 4-34Z" />
    <path d="M160 112c22 18 36 42 42 74-16-12-34-18-52-18-18 0-36 6-52 18 6-32 20-56 42-74 4 10 10 16 20 16s16-6 20-16Z" />
    <path d="M64 208c26-10 42-28 48-54 8 18 22 30 42 38-22 0-40 10-54 30-2-8-14-12-36-14Z" />
    <path d="M256 208c-26-10-42-28-48-54-8 18-22 30-42 38 22 0 40 10 54 30 2-8 14-12 36-14Z" />
    <path d="M160 218c18 34 40 56 70 68-20 2-34 8-44 18-8-18-18-30-26-36-8 6-18 18-26 36-10-10-24-16-44-18 30-12 52-34 70-68Z" />
  </g>
  <g fill="#d15c87" fill-opacity="0.12">
    <circle cx="160" cy="160" r="78" />
    <circle cx="40" cy="40" r="38" />
    <circle cx="280" cy="40" r="38" />
    <circle cx="40" cy="280" r="38" />
    <circle cx="280" cy="280" r="38" />
  </g>
</svg>
